<svg width="68" height="59" viewBox="0 0 68 59" fill="none" xmlns="http://www.w3.org/2000/svg">
<g clip-path="url(#clip0_629_42881)">
<path d="M34 0C25.1777 0 18 7.17774 18 16C18 24.8223 25.1777 32 34 32C42.823 32 50 24.8223 50 16C50 7.17774 42.823 0 34 0ZM34 30.6087C25.9443 30.6087 19.3913 24.0557 19.3913 16C19.3913 7.94435 25.9443 1.3913 34 1.3913C42.055 1.3913 48.6087 7.94435 48.6087 16C48.6087 24.0557 42.055 30.6087 34 30.6087Z" fill="#BEBFC0"/>
<path d="M30.5216 13.2178C30.5216 12.0672 29.5852 11.1309 28.4346 11.1309C27.284 11.1309 26.3477 12.0672 26.3477 13.2178C26.3477 14.3684 27.284 15.3048 28.4346 15.3048C29.5852 15.3048 30.5216 14.3684 30.5216 13.2178ZM27.739 13.2178C27.739 12.8345 28.0513 12.5222 28.4346 12.5222C28.8179 12.5222 29.1303 12.8345 29.1303 13.2178C29.1303 13.6011 28.8179 13.9135 28.4346 13.9135C28.0513 13.9135 27.739 13.6011 27.739 13.2178Z" fill="#BEBFC0"/>
<path d="M39.5655 11.1309C38.4149 11.1309 37.4785 12.0672 37.4785 13.2178C37.4785 14.3684 38.4149 15.3048 39.5655 15.3048C40.7161 15.3048 41.6524 14.3684 41.6524 13.2178C41.6524 12.0672 40.7161 11.1309 39.5655 11.1309ZM39.5655 13.9135C39.1815 13.9135 38.8698 13.6011 38.8698 13.2178C38.8698 12.8345 39.1815 12.5222 39.5655 12.5222C39.9495 12.5222 40.2611 12.8345 40.2611 13.2178C40.2611 13.6011 39.9495 13.9135 39.5655 13.9135Z" fill="#BEBFC0"/>
<path d="M34.0002 19.4785C31.4068 19.4785 28.9359 20.5769 27.2211 22.4928C26.9651 22.7794 26.9894 23.219 27.2754 23.475C27.562 23.7317 28.0016 23.7067 28.2576 23.4208C29.7088 21.7992 31.802 20.8698 34.0002 20.8698C36.1985 20.8698 38.2917 21.7992 39.7428 23.4208C39.8799 23.5745 40.0705 23.6524 40.2611 23.6524C40.426 23.6524 40.5929 23.594 40.7251 23.475C41.011 23.219 41.0354 22.7794 40.7794 22.4928C39.0646 20.5776 36.5943 19.4785 34.0002 19.4785Z" fill="#BEBFC0"/>
</g>
<path d="M1.77495 43.2H3.17495L8.50895 51.404V43.2H9.62895V53H8.22895L2.90895 44.838V53H1.77495V43.2ZM14.6632 53.084C13.9912 53.084 13.4078 52.9347 12.9132 52.636C12.4185 52.328 12.0358 51.8987 11.7652 51.348C11.5038 50.788 11.3732 50.1393 11.3732 49.402C11.3732 48.6647 11.5038 48.0207 11.7652 47.47C12.0358 46.91 12.4185 46.4807 12.9132 46.182C13.4078 45.874 13.9912 45.72 14.6632 45.72C15.3352 45.72 15.9185 45.874 16.4132 46.182C16.9078 46.4807 17.2858 46.91 17.5472 47.47C17.8178 48.0207 17.9532 48.6647 17.9532 49.402C17.9532 50.1393 17.8178 50.788 17.5472 51.348C17.2858 51.8987 16.9078 52.328 16.4132 52.636C15.9185 52.9347 15.3352 53.084 14.6632 53.084ZM12.4932 49.402C12.4932 50.2327 12.6752 50.8767 13.0392 51.334C13.4125 51.7913 13.9538 52.02 14.6632 52.02C15.3725 52.02 15.9138 51.7913 16.2872 51.334C16.6605 50.8767 16.8472 50.2327 16.8472 49.402C16.8472 48.5713 16.6605 47.9273 16.2872 47.47C15.9138 47.0127 15.3725 46.784 14.6632 46.784C13.9538 46.784 13.4125 47.0127 13.0392 47.47C12.6752 47.9273 12.4932 48.5713 12.4932 49.402ZM23.0894 43.2H27.0514C27.6954 43.2 28.2414 43.3307 28.6894 43.592C29.1467 43.844 29.4874 44.18 29.7114 44.6C29.9354 45.0107 30.0474 45.454 30.0474 45.93C30.0474 46.5273 29.8701 47.0733 29.5154 47.568C29.1607 48.0533 28.6707 48.3847 28.0454 48.562L30.4814 53H29.1514L26.9254 48.87H24.2234V53H23.0894V43.2ZM26.8834 47.792C27.2941 47.792 27.6487 47.708 27.9474 47.54C28.2461 47.372 28.4747 47.1527 28.6334 46.882C28.7921 46.6113 28.8714 46.3173 28.8714 46C28.8714 45.5147 28.6987 45.1087 28.3534 44.782C28.0174 44.446 27.5461 44.278 26.9394 44.278H24.2234V47.792H26.8834ZM34.6498 53.084C34.0151 53.084 33.4505 52.9487 32.9558 52.678C32.4611 52.4073 32.0691 52.0013 31.7798 51.46C31.4998 50.9187 31.3598 50.256 31.3598 49.472C31.3598 48.7067 31.4951 48.044 31.7658 47.484C32.0458 46.9147 32.4331 46.4807 32.9278 46.182C33.4318 45.874 34.0198 45.72 34.6918 45.72C35.6531 45.72 36.3905 46.014 36.9038 46.602C37.4171 47.19 37.6738 48.0067 37.6738 49.052C37.6738 49.1827 37.6551 49.4627 37.6178 49.892H34.1738C33.5205 49.892 32.9605 49.8407 32.4938 49.738C32.5125 50.5127 32.7131 51.0913 33.0958 51.474C33.4878 51.8567 34.0198 52.048 34.6918 52.048C35.2238 52.048 35.6531 51.936 35.9798 51.712C36.3065 51.4787 36.4745 51.1613 36.4838 50.76H37.5198C37.5198 51.2173 37.3938 51.6233 37.1418 51.978C36.8898 52.3327 36.5445 52.608 36.1058 52.804C35.6765 52.9907 35.1911 53.084 34.6498 53.084ZM32.4938 48.716C32.9885 48.828 33.5625 48.884 34.2158 48.884H36.5538C36.5538 47.456 35.9098 46.742 34.6218 46.742C34.0338 46.742 33.5531 46.9193 33.1798 47.274C32.8065 47.6193 32.5778 48.1 32.4938 48.716ZM41.5853 53.084C40.7639 53.084 40.0779 52.888 39.5273 52.496C38.9859 52.104 38.7153 51.544 38.7153 50.816C38.7153 50.7413 38.7246 50.62 38.7433 50.452H39.8213C39.8026 50.564 39.7933 50.6527 39.7933 50.718C39.7933 51.1287 39.9613 51.46 40.2973 51.712C40.6426 51.9547 41.1046 52.076 41.6833 52.076C42.1686 52.076 42.5373 51.9873 42.7893 51.81C43.0413 51.6233 43.1673 51.362 43.1673 51.026C43.1673 50.7273 43.0693 50.5033 42.8733 50.354C42.6773 50.1953 42.3926 50.074 42.0193 49.99L41.1233 49.794C40.7313 49.71 40.3906 49.6073 40.1013 49.486C39.8213 49.3553 39.5786 49.1593 39.3733 48.898C39.1679 48.6273 39.0653 48.2633 39.0653 47.806C39.0653 47.134 39.2939 46.6207 39.7513 46.266C40.2086 45.902 40.7966 45.72 41.5153 45.72C42.0473 45.72 42.5186 45.8273 42.9293 46.042C43.3399 46.2473 43.6666 46.5647 43.9093 46.994L42.9993 47.568C42.8686 47.3067 42.6679 47.1013 42.3973 46.952C42.1359 46.8027 41.8233 46.728 41.4593 46.728C41.0766 46.728 40.7639 46.8167 40.5213 46.994C40.2879 47.162 40.1713 47.4093 40.1713 47.736C40.1713 48.0907 40.2879 48.3427 40.5213 48.492C40.7639 48.6413 41.0813 48.7627 41.4733 48.856L42.2853 49.024C42.6959 49.1173 43.0413 49.2247 43.3213 49.346C43.6013 49.4673 43.8299 49.654 44.0073 49.906C44.1939 50.158 44.2873 50.494 44.2873 50.914C44.2873 51.6233 44.0306 52.1647 43.5173 52.538C43.0039 52.902 42.3599 53.084 41.5853 53.084ZM48.2448 53.084C47.4888 53.084 46.8821 52.86 46.4248 52.412C45.9674 51.964 45.7388 51.3247 45.7388 50.494V45.86H46.8308V50.326C46.8308 50.858 46.9754 51.2733 47.2648 51.572C47.5541 51.8707 47.9461 52.02 48.4408 52.02C48.8234 52.02 49.1688 51.9313 49.4768 51.754C49.7941 51.5767 50.0414 51.3293 50.2188 51.012C50.4054 50.6853 50.4988 50.3213 50.4988 49.92V45.86H51.5768V53H50.5128V51.922C49.9994 52.6967 49.2434 53.084 48.2448 53.084ZM53.5881 42.78H54.6801V53H53.5881V42.78ZM59.4496 53C58.7776 53 58.2456 52.7993 57.8536 52.398C57.4709 51.9873 57.2796 51.404 57.2796 50.648V46.854H55.7676V45.86H57.2796V43.998H58.3576V45.86H58.6796C59.2303 45.86 59.8043 45.804 60.4016 45.692L60.5556 46.658C59.9676 46.7887 59.3283 46.854 58.6376 46.854H58.3576V50.62C58.3576 51.5253 58.7729 51.978 59.6036 51.978H60.5416V53H59.4496ZM64.1575 53.084C63.3362 53.084 62.6502 52.888 62.0995 52.496C61.5582 52.104 61.2875 51.544 61.2875 50.816C61.2875 50.7413 61.2969 50.62 61.3155 50.452H62.3935C62.3749 50.564 62.3655 50.6527 62.3655 50.718C62.3655 51.1287 62.5335 51.46 62.8695 51.712C63.2149 51.9547 63.6769 52.076 64.2555 52.076C64.7409 52.076 65.1095 51.9873 65.3615 51.81C65.6135 51.6233 65.7395 51.362 65.7395 51.026C65.7395 50.7273 65.6415 50.5033 65.4455 50.354C65.2495 50.1953 64.9649 50.074 64.5915 49.99L63.6955 49.794C63.3035 49.71 62.9629 49.6073 62.6735 49.486C62.3935 49.3553 62.1509 49.1593 61.9455 48.898C61.7402 48.6273 61.6375 48.2633 61.6375 47.806C61.6375 47.134 61.8662 46.6207 62.3235 46.266C62.7809 45.902 63.3689 45.72 64.0875 45.72C64.6195 45.72 65.0909 45.8273 65.5015 46.042C65.9122 46.2473 66.2389 46.5647 66.4815 46.994L65.5715 47.568C65.4409 47.3067 65.2402 47.1013 64.9695 46.952C64.7082 46.8027 64.3955 46.728 64.0315 46.728C63.6489 46.728 63.3362 46.8167 63.0935 46.994C62.8602 47.162 62.7435 47.4093 62.7435 47.736C62.7435 48.0907 62.8602 48.3427 63.0935 48.492C63.3362 48.6413 63.6535 48.7627 64.0455 48.856L64.8575 49.024C65.2682 49.1173 65.6135 49.2247 65.8935 49.346C66.1735 49.4673 66.4022 49.654 66.5795 49.906C66.7662 50.158 66.8595 50.494 66.8595 50.914C66.8595 51.6233 66.6029 52.1647 66.0895 52.538C65.5762 52.902 64.9322 53.084 64.1575 53.084Z" fill="#BEBFC0"/>
<defs>
<clipPath id="clip0_629_42881">
<rect width="32" height="32" fill="white" transform="translate(18)"/>
</clipPath>
</defs>
</svg>
